<svg xmlns="http://www.w3.org/2000/svg" xmlns:xlink="http://www.w3.org/1999/xlink" width="72" height="75" viewBox="0 0 72 75">
  <defs>
    <clipPath id="clip-path">
      <rect id="Rectangle_646" data-name="Rectangle 646" width="72" height="75" transform="translate(0.292)" fill="#fff" stroke="#707070" stroke-width="1"/>
    </clipPath>
  </defs>
  <g id="Mask_Group_86" data-name="Mask Group 86" transform="translate(-0.292)" opacity="0.27" clip-path="url(#clip-path)">
    <path id="smart-cart" d="M70.068,14.231a6.941,6.941,0,0,0-5.394-2.463H13.082l-.519-4.028C12,3.4,9.083,0,5.914,0H2.124A2.161,2.161,0,0,0,0,2.2a2.161,2.161,0,0,0,2.124,2.2H5.914c.681,0,2.124,1.491,2.438,3.925l6.079,47.174a8.974,8.974,0,0,0,2.907,5.482,8.666,8.666,0,0,0,4.076,2.1,8.247,8.247,0,0,0-.943,3.845A7.958,7.958,0,0,0,28.281,75a7.958,7.958,0,0,0,7.81-8.081,8.25,8.25,0,0,0-.864-3.686H46.355a8.25,8.25,0,0,0-.864,3.686,7.815,7.815,0,1,0,15.62,0,8.25,8.25,0,0,0-.864-3.686h5.564a2.2,2.2,0,0,0,0-4.395H22.974a4.613,4.613,0,0,1-4.333-3.926L18.2,51.465H60.125a8.431,8.431,0,0,0,5.636-2.257,8.975,8.975,0,0,0,2.907-5.482l3.046-23.638a7.464,7.464,0,0,0-1.646-5.857ZM31.844,66.919a3.565,3.565,0,1,1-3.563-3.686A3.63,3.63,0,0,1,31.844,66.919Zm25.021,0A3.565,3.565,0,1,1,53.3,63.233,3.63,3.63,0,0,1,56.865,66.919ZM66.872,17.126a3.026,3.026,0,0,1,.632,2.381l-1.277,9.912H51.778l.854-13.257H64.674a2.812,2.812,0,0,1,2.2.964ZM36.715,47.07,35.86,33.813H47.238L46.384,47.07ZM35.577,29.419l-.854-13.257H48.375l-.854,13.257Zm-5.11-13.257.854,13.257H15.355L13.647,16.162ZM15.922,33.813H31.6l.854,13.257H17.63Zm44.2,13.257H50.641l.854-13.257H65.661l-1.2,9.332a4.613,4.613,0,0,1-4.333,3.925Zm0,0" transform="translate(-0.34 0.069)"/>
  </g>
</svg>
