<svg xmlns="http://www.w3.org/2000/svg" xmlns:xlink="http://www.w3.org/1999/xlink" width="172" height="172" viewBox="0 0 172 172">
  <defs>
    <clipPath id="clip-path">
      <rect id="Rectangle_2072" data-name="Rectangle 2072" width="172" height="172" transform="translate(882.513 641.513)" fill="#fff" stroke="#707070" stroke-width="1"/>
    </clipPath>
    <linearGradient id="linear-gradient" x1="0.224" x2="1.07" y2="0.798" gradientUnits="objectBoundingBox">
      <stop offset="0" stop-color="#cecaca"/>
      <stop offset="1" stop-color="#c8c8c8"/>
    </linearGradient>
  </defs>
  <g id="Mask_Group_251" data-name="Mask Group 251" transform="translate(-882.513 -641.513)" opacity="0.78" clip-path="url(#clip-path)">
    <g id="gift" transform="translate(882.78 641.78)">
      <path id="Path_1229" data-name="Path 1229" d="M155.506,225.733H34.05a10.73,10.73,0,0,1-10.717-10.717V143.572A3.574,3.574,0,0,1,26.906,140H162.65a3.574,3.574,0,0,1,3.572,3.572v71.444A10.73,10.73,0,0,1,155.506,225.733ZM30.478,147.144v67.872a3.583,3.583,0,0,0,3.572,3.572H155.506a3.583,3.583,0,0,0,3.572-3.572V147.144Z" transform="translate(-9.044 -54.267)" fill="url(#linear-gradient)"/>
      <path id="Path_1230" data-name="Path 1230" d="M160.75,124.533H10.717A10.73,10.73,0,0,1,0,113.817V92.383A10.73,10.73,0,0,1,10.717,81.667H160.75a10.73,10.73,0,0,1,10.717,10.717v21.433A10.73,10.73,0,0,1,160.75,124.533ZM10.717,88.811a3.583,3.583,0,0,0-3.572,3.572v21.433a3.583,3.583,0,0,0,3.572,3.572H160.75a3.583,3.583,0,0,0,3.572-3.572V92.383a3.583,3.583,0,0,0-3.572-3.572Z" transform="translate(0 -31.656)" fill="url(#linear-gradient)"/>
      <path id="Path_1231" data-name="Path 1231" d="M137.738,57.156a3.574,3.574,0,0,1-3.536-4.072C134.28,52.547,142.267,0,184.177,0c18.461,0,25.013,9.974,25.013,18.511C209.189,34.558,187.02,57.156,137.738,57.156ZM184.177,7.144c-29.378,0-39.394,31.328-42.074,42.8,39.144-1.215,59.942-18.69,59.942-31.428a9.3,9.3,0,0,0-3.958-7.752c-3.144-2.365-7.959-3.615-13.91-3.615Z" transform="translate(-52.005 0)" fill="url(#linear-gradient)"/>
      <path id="Path_1232" data-name="Path 1232" d="M94.785,57.156c-49.282,0-71.452-22.6-71.452-38.644A16.532,16.532,0,0,1,30.142,5.044C34.536,1.743,40.83,0,48.346,0c41.909,0,49.9,52.547,49.975,53.083a3.574,3.574,0,0,1-3.536,4.072ZM48.346,7.144c-11.024,0-17.868,4.351-17.868,11.367,0,12.746,20.812,30.221,59.978,31.436C87.862,38.409,78.1,7.144,48.346,7.144Z" transform="translate(-9.044 0)" fill="url(#linear-gradient)"/>
      <path id="Path_1233" data-name="Path 1233" d="M137.739,203.122a3.574,3.574,0,0,1-3.572-3.572V85.239a3.572,3.572,0,1,1,7.144,0V199.55A3.574,3.574,0,0,1,137.739,203.122Z" transform="translate(-52.006 -31.656)" fill="url(#linear-gradient)"/>
    </g>
  </g>
</svg>
