<svg xmlns="http://www.w3.org/2000/svg" xmlns:xlink="http://www.w3.org/1999/xlink" width="24" height="24" viewBox="0 0 24 24">
  <defs>
    <clipPath id="clip-path">
      <rect id="Rectangle_605" data-name="Rectangle 605" width="24" height="24" transform="translate(927 1992)" fill="#fff" stroke="#707070" stroke-width="1"/>
    </clipPath>
  </defs>
  <g id="Mask_Group_83" data-name="Mask Group 83" transform="translate(-927 -1992)" clip-path="url(#clip-path)">
    <g id="pin" transform="translate(927 1992)">
      <g id="Group_1411" data-name="Group 1411">
        <path id="Path_343" data-name="Path 343" d="M12,0A9.01,9.01,0,0,0,3,9c0,6.64,8.3,14.531,8.657,14.864a.5.5,0,0,0,.686,0C12.7,23.531,21,15.64,21,9A9.01,9.01,0,0,0,12,0Zm0,14a5,5,0,1,1,5-5A5.006,5.006,0,0,1,12,14Z" fill="#772ce8"/>
      </g>
    </g>
  </g>
</svg>
