<svg xmlns="http://www.w3.org/2000/svg" xmlns:xlink="http://www.w3.org/1999/xlink" width="22" height="22" viewBox="0 0 22 22">
  <defs>
    <clipPath id="clip-path">
      <rect id="Rectangle_588" data-name="Rectangle 588" width="22" height="22" transform="translate(0.041 -0.179)" fill="#fff" stroke="#0e0e10" stroke-width="1"/>
    </clipPath>
  </defs>
  <g id="Mask_Group_81" data-name="Mask Group 81" transform="translate(-0.041 0.179)" clip-path="url(#clip-path)">
    <path id="twitter" d="M21.164,3a9.991,9.991,0,0,1-2.878,1.4,4.106,4.106,0,0,0-7.2,2.75v.917A9.771,9.771,0,0,1,2.833,3.916S-.833,12.165,7.416,15.831A10.669,10.669,0,0,1,1,17.664c8.249,4.583,18.331,0,18.331-10.54a4.125,4.125,0,0,0-.073-.761A7.076,7.076,0,0,0,21.164,3Z" transform="translate(-0.13 -0.41)" fill="none" stroke="#0e0e10" stroke-linecap="round" stroke-linejoin="round" stroke-width="2"/>
  </g>
</svg>
