<svg xmlns="http://www.w3.org/2000/svg" xmlns:xlink="http://www.w3.org/1999/xlink" width="27" height="27" viewBox="0 0 27 27">
  <defs>
    <clipPath id="clip-path">
      <rect id="Rectangle_1935" data-name="Rectangle 1935" width="27" height="27" transform="translate(1138 104)" fill="#fff" stroke="#707070" stroke-width="1"/>
    </clipPath>
  </defs>
  <g id="Mask_Group_216" data-name="Mask Group 216" transform="translate(-1138 -104)" clip-path="url(#clip-path)">
    <g id="alert" transform="translate(1138 104)">
      <g id="Group_1617" data-name="Group 1617">
        <path id="Path_1176" data-name="Path 1176" d="M26.439,20.247,16.9,2.714a3.956,3.956,0,0,0-6.8,0L.561,20.247a3.953,3.953,0,0,0,3.4,5.974H23.038A3.954,3.954,0,0,0,26.439,20.247ZM13.5,23.058a1.582,1.582,0,1,1,1.582-1.582A1.584,1.584,0,0,1,13.5,23.058Zm1.582-6.328a1.582,1.582,0,1,1-3.164,0V8.819a1.582,1.582,0,1,1,3.164,0Z" fill="#ff9e0c"/>
      </g>
    </g>
  </g>
</svg>
