<svg xmlns="http://www.w3.org/2000/svg" xmlns:xlink="http://www.w3.org/1999/xlink" width="24" height="24" viewBox="0 0 24 24">
  <defs>
    <clipPath id="clip-path">
      <rect id="Rectangle_633" data-name="Rectangle 633" width="24" height="24" transform="translate(0 0.422)" fill="#fff" stroke="#848484" stroke-width="1.5"/>
    </clipPath>
  </defs>
  <g id="Mask_Group_38" data-name="Mask Group 38" transform="translate(0 -0.422)" clip-path="url(#clip-path)">
    <g id="settings" transform="translate(1 1.434)">
      <circle id="Ellipse_161" data-name="Ellipse 161" cx="3" cy="3" r="3" transform="translate(8 7.988)" fill="none" stroke="#848484" stroke-linecap="round" stroke-linejoin="round" stroke-width="1.5"/>
      <path id="Path_173" data-name="Path 173" d="M19.4,15a1.65,1.65,0,0,0,.33,1.82l.06.06a2,2,0,1,1-2.83,2.83l-.06-.06a1.663,1.663,0,0,0-2.82,1.18V21a2,2,0,0,1-4,0v-.09A1.65,1.65,0,0,0,9,19.4a1.65,1.65,0,0,0-1.82.33l-.06.06a2,2,0,1,1-2.83-2.83l.06-.06a1.663,1.663,0,0,0-1.18-2.82H3a2,2,0,1,1,0-4h.09A1.65,1.65,0,0,0,4.6,9a1.65,1.65,0,0,0-.33-1.82l-.06-.06A2,2,0,1,1,7.04,4.29l.06.06a1.65,1.65,0,0,0,1.82.33H9a1.65,1.65,0,0,0,1-1.51V3a2,2,0,0,1,4,0v.09a1.663,1.663,0,0,0,2.82,1.18l.06-.06a2,2,0,1,1,2.83,2.83l-.06.06a1.65,1.65,0,0,0-.33,1.82V9a1.65,1.65,0,0,0,1.51,1H21a2,2,0,0,1,0,4h-.09A1.65,1.65,0,0,0,19.4,15Z" transform="translate(-1 -1)" fill="none" stroke="#848484" stroke-linecap="round" stroke-linejoin="round" stroke-width="1.5"/>
    </g>
  </g>
</svg>
