<svg xmlns="http://www.w3.org/2000/svg" xmlns:xlink="http://www.w3.org/1999/xlink" width="18" height="18" viewBox="0 0 18 18">
  <defs>
    <clipPath id="clip-path">
      <rect id="Rectangle_1856" data-name="Rectangle 1856" width="18" height="18" transform="translate(160 103)" fill="#fff" stroke="#772ce8" stroke-width="1"/>
    </clipPath>
  </defs>
  <g id="Mask_Group_182" data-name="Mask Group 182" transform="translate(-160 -103)" clip-path="url(#clip-path)">
    <path id="phone" d="M18.057,13.888V16.35a1.642,1.642,0,0,1-1.789,1.642,16.243,16.243,0,0,1-7.083-2.52A16.005,16.005,0,0,1,4.26,10.547,16.243,16.243,0,0,1,1.74,3.431,1.642,1.642,0,0,1,3.373,1.642H5.836A1.642,1.642,0,0,1,7.477,3.053,10.539,10.539,0,0,0,8.052,5.36a1.642,1.642,0,0,1-.369,1.732L6.64,8.134a13.133,13.133,0,0,0,4.925,4.925l1.042-1.042a1.642,1.642,0,0,1,1.732-.369,10.539,10.539,0,0,0,2.306.575,1.642,1.642,0,0,1,1.412,1.666Z" transform="translate(159.104 102.179)" fill="none" stroke="#772ce8" stroke-linecap="round" stroke-linejoin="round" stroke-width="1.642"/>
  </g>
</svg>
