<svg xmlns="http://www.w3.org/2000/svg" xmlns:xlink="http://www.w3.org/1999/xlink" width="18" height="18" viewBox="0 0 18 18">
  <defs>
    <clipPath id="clip-path">
      <rect id="Rectangle_1884" data-name="Rectangle 1884" width="18" height="18" transform="translate(0 0.433)" fill="#fff" stroke="red" stroke-width="1"/>
    </clipPath>
  </defs>
  <g id="Mask_Group_194" data-name="Mask Group 194" transform="translate(0 -0.433)" clip-path="url(#clip-path)">
    <g id="trash-2" transform="translate(1.636 1.006)">
      <path id="Path_1155" data-name="Path 1155" d="M2.455,4.909H17.182" transform="translate(-2.455 -1.636)" fill="none" stroke="red" stroke-linecap="round" stroke-linejoin="round" stroke-width="1.636"/>
      <path id="Path_1156" data-name="Path 1156" d="M15.545,4.909V16.364A1.636,1.636,0,0,1,13.909,18H5.727a1.636,1.636,0,0,1-1.636-1.636V4.909m2.455,0V3.273A1.636,1.636,0,0,1,8.182,1.636h3.273a1.636,1.636,0,0,1,1.636,1.636V4.909" transform="translate(-2.455 -1.636)" fill="none" stroke="red" stroke-linecap="round" stroke-linejoin="round" stroke-width="1.636"/>
      <line id="Line_493" data-name="Line 493" y2="4.909" transform="translate(5.727 7.364)" fill="none" stroke="red" stroke-linecap="round" stroke-linejoin="round" stroke-width="1.636"/>
      <line id="Line_494" data-name="Line 494" y2="4.909" transform="translate(9 7.364)" fill="none" stroke="red" stroke-linecap="round" stroke-linejoin="round" stroke-width="1.636"/>
    </g>
  </g>
</svg>
