<svg xmlns="http://www.w3.org/2000/svg" xmlns:xlink="http://www.w3.org/1999/xlink" width="18" height="18" viewBox="0 0 18 18">
  <defs>
    <clipPath id="clip-path">
      <rect id="Rectangle_2660" data-name="Rectangle 2660" width="18" height="18" transform="translate(0 0.171)" fill="#fff" stroke="#707070" stroke-width="1"/>
    </clipPath>
  </defs>
  <g id="Mask_Group_373" data-name="Mask Group 373" transform="translate(0 -0.171)" opacity="0.73" clip-path="url(#clip-path)">
    <g id="shop" transform="translate(-0.112 1.044)">
      <g id="Group_2165" data-name="Group 2165" transform="translate(0)">
        <path id="Path_1624" data-name="Path 1624" d="M11.819,8.623H9.343A1.23,1.23,0,0,0,8.114,9.852v1.9a1.23,1.23,0,0,0,1.229,1.229h2.476a1.23,1.23,0,0,0,1.229-1.229v-1.9A1.23,1.23,0,0,0,11.819,8.623Zm.335,3.128a.336.336,0,0,1-.335.335H9.343a.336.336,0,0,1-.335-.335v-1.9a.336.336,0,0,1,.335-.335h2.476a.336.336,0,0,1,.335.335Z" transform="translate(1.128 0.042)"/>
        <path id="Path_1625" data-name="Path 1625" d="M18.224,6.228a.415.415,0,0,0-.06-.22L15.453,1.242a.449.449,0,0,0-.387-.227H3.154a.442.442,0,0,0-.387.227L.06,6.009a.452.452,0,0,0-.06.22A2.614,2.614,0,0,0,1.564,8.619V16.48a.448.448,0,0,0,.447.447h14.2a.448.448,0,0,0,.447-.447v-7.8a.2.2,0,0,0,0-.048A2.621,2.621,0,0,0,18.224,6.228ZM3.415,1.913H14.805L16.924,5.64H1.3ZM12.97,6.53a1.717,1.717,0,0,1-3.381,0Zm-4.331,0a1.72,1.72,0,0,1-3.385,0Zm-7.715,0H4.308a1.72,1.72,0,0,1-3.385,0Zm6.583,9.5H4.938V11.211a.636.636,0,0,1,.637-.637h1.3a.636.636,0,0,1,.637.637v4.822Zm8.255,0H8.4V11.211A1.533,1.533,0,0,0,6.87,9.68h-1.3a1.533,1.533,0,0,0-1.53,1.53v4.826H2.458v-7.2c.052,0,.1,0,.156,0A2.611,2.611,0,0,0,4.781,7.688a2.612,2.612,0,0,0,4.334,0,2.6,2.6,0,0,0,4.327,0A2.611,2.611,0,0,0,15.61,8.842c.052,0,.1,0,.153,0v7.194ZM15.61,7.949a1.716,1.716,0,0,1-1.691-1.415H17.3A1.727,1.727,0,0,1,15.61,7.949Z" transform="translate(0 -1.015)"/>
      </g>
    </g>
  </g>
</svg>
