<svg id="Capa_1" enable-background="new 0 0 510 510" height="512" viewBox="0 0 510 510" width="512" xmlns="http://www.w3.org/2000/svg"><g><path d="m286.047 331.051c.021 0 10.063-15 10.063-15l-10-14.997c-.021 0-.042-.003-.063-.003l-134.547-22.656-75.391 38.375-25.095 59.056 25.095 90.288 210-34.666 10-44.447-10-26.018z" fill="#f9c5b9"/><g fill="#ffb19e"><path d="m301.047 316.051c0-8.251-6.695-14.963-14.938-14.997v29.993c8.242-.033 14.938-6.746 14.938-14.996z"/><path d="m498.889 237.213c-12.16-11.72-31.248-12.243-44.032-1.206l-131.225 104.584-37.522 1.173v89.684l58.532-9.662 153.467-136.786c14.061-12.692 14.419-34.643.78-47.787z"/><path d="m285.396 271h-56.459l-.927-.463c-27.295-13.648-58.743-17.559-88.546-11.011-23.806 5.229-45.767 16.952-63.356 33.602l-6.025 19.6 6.026 26.252 11-13.609c30.376-37.971 83.992-49.747 127.485-28.001l7.261 3.631h63.542c.24 0 .475.024.713.036l10-15.498-10-14.52c-.239-.004-.475-.019-.714-.019z"/><path d="m203.396 331v30c19.263-.004 80.66.014 82.713-.018l10-15.001-10-15.018c-1.715.082 7.787.01-82.713.037z"/></g><path d="m330.396 316c0-24.574-19.803-44.598-44.287-44.982v30.018c7.939.376 14.287 6.933 14.287 14.964s-6.349 14.588-14.287 14.964v30.019c24.485-.385 44.287-20.409 44.287-44.983z" fill="#f07f73"/><path id="XMLID_78_" d="m1.109 240h75v270h-75z" fill="#5facfb"/><path d="m256.109 0h-75v120l11.891 15-11.891 15v60h105l10-75-10-60z" fill="#ffdc80"/><path d="m391.109 0h-75l-30 75v135h105z" fill="#ffc55a"/><path d="m286.109 75 10-37.5-10-37.5h-30v75z" fill="#ffc55a"/><path d="m286.109 0h30v75h-30z" fill="#fe8b5e"/><path d="m181.109 120h60v30h-60z" fill="#ffc55a"/></g></svg>