<svg xmlns="http://www.w3.org/2000/svg" width="31.194" height="31.194" viewBox="0 0 31.194 31.194">
  <g id="find-store" transform="translate(0 0.5)">
    <path id="Path_1705" data-name="Path 1705" d="M1.511,34.205A.605.605,0,0,1,1,33.538V6.746a.606.606,0,0,1,.511-.669H22.966a.606.606,0,0,1,.511.669V33.538a.606.606,0,0,1-.511.669H1.511Zm20.943-1.339V7.416H2.022v25.45Z" transform="translate(0.432 -3.514)" fill="#0f0808"/>
    <g id="Group_2312" data-name="Group 2312" transform="translate(0 0)">
      <g id="Group_2311" data-name="Group 2311" transform="translate(0 7.787)">
        <path id="Path_1706" data-name="Path 1706" d="M0,23H27.005v1.432H0Z" transform="translate(0 -1.527)" fill="#0f0808"/>
        <path id="Path_1707" data-name="Path 1707" d="M6.762,27.883A.691.691,0,0,1,6,27.3V15.586A.691.691,0,0,1,6.762,15h13.72a.691.691,0,0,1,.762.587V27.3a.692.692,0,0,1-.762.587H6.762ZM19.72,26.712V16.171H7.524V26.712Z" transform="translate(-0.12 -4.979)" fill="#0f0808"/>
        <path id="Path_1708" data-name="Path 1708" d="M12.436,18.021h1.271V30.9H12.436ZM1,9.432V8H25.142V9.432Zm0,2.863V10.863H25.142v1.432Zm0,2.863V13.726H25.142v1.432Z" transform="translate(0.432 -8)" fill="#0f0808"/>
      </g>
      <circle id="Ellipse_728" data-name="Ellipse 728" cx="5.726" cy="5.726" r="5.726" transform="translate(15.553 3.799)"/>
      <path id="Path_1709" data-name="Path 1709" d="M19.357,1.346A10.777,10.777,0,0,1,26.88,4.361a10.075,10.075,0,0,1,3.1,7.262c0,7.365-10.089,18.277-10.089,18.277s-.189.205-.537.562q-.273-.278-.538-.562S8.731,18.989,8.731,11.624a10.075,10.075,0,0,1,3.1-7.262,10.777,10.777,0,0,1,7.523-3.015Zm0,7.346a3.518,3.518,0,0,0-2.454.986,3.325,3.325,0,0,0,0,4.805,3.545,3.545,0,0,0,4.907,0,3.328,3.328,0,0,0,0-4.805A3.517,3.517,0,0,0,19.357,8.692Z" transform="translate(0.711 -1.346)" fill="#fff" stroke="#000" stroke-width="1" fill-rule="evenodd"/>
    </g>
  </g>
</svg>
