<svg id="Capa_1" enable-background="new 0 0 512 512" height="512" viewBox="0 0 512 512" width="512" xmlns="http://www.w3.org/2000/svg"><g id="XMLID_237_"><g id="XMLID_1774_"><path id="XMLID_1778_" d="m287.717 286.188c-4.966-2.41-10.951-.342-13.363 4.627l-55.025 113.305c-2.413 4.968-.341 10.952 4.627 13.364 1.408.683 2.896 1.007 4.361 1.007 3.709 0 7.273-2.073 9.003-5.634l55.024-113.305c2.413-4.968.341-10.951-4.627-13.364z"/><path id="XMLID_2041_" d="m229.835 280.572c-12.479-12.479-32.784-12.479-45.263 0s-12.479 32.784 0 45.263c6.239 6.239 14.435 9.358 22.631 9.358s16.392-3.12 22.632-9.359c12.478-12.479 12.478-32.783 0-45.262zm-14.142 31.12c-4.68 4.681-12.297 4.682-16.979 0-4.681-4.681-4.681-12.297 0-16.978 2.34-2.341 5.415-3.511 8.489-3.511s6.148 1.17 8.489 3.51c4.681 4.682 4.681 12.299.001 16.979z"/><path id="XMLID_2046_" d="m304.797 368.792c-8.549 0-16.586 3.329-22.632 9.374-12.479 12.479-12.479 32.784 0 45.263 6.045 6.045 14.083 9.374 22.632 9.374s16.586-3.329 22.631-9.374c12.479-12.479 12.479-32.784 0-45.263-6.045-6.045-14.082-9.374-22.631-9.374zm8.488 40.494c-2.268 2.268-5.282 3.516-8.488 3.516-3.207 0-6.222-1.249-8.489-3.517-4.682-4.681-4.682-12.297 0-16.978 2.268-2.268 5.282-3.516 8.489-3.516s6.222 1.249 8.488 3.516c4.682 4.681 4.682 12.298 0 16.979z"/><path id="XMLID_2055_" d="m458.181 88h-90.338c4.323-6.738 6.842-14.739 6.842-23.321v-21.358c0-23.887-19.434-43.321-43.322-43.321-19.807 0-38.108 10.744-47.764 28.04l-27.599 49.443-27.6-49.443c-9.653-17.296-27.956-28.04-47.763-28.04-23.887 0-43.321 19.434-43.321 43.321v21.357c0 8.583 2.519 16.583 6.842 23.321h-90.339c-15.34.001-27.819 12.48-27.819 27.82v68.361c0 12.625 8.456 23.306 20 26.693v271.127c0 16.542 13.458 30 30 30h360c16.542 0 30-13.458 30-30v-271.126c11.544-3.387 20-14.068 20-26.693v-68.361c0-15.341-12.479-27.82-27.819-27.82zm-157.118-50.212c6.125-10.972 17.735-17.788 30.3-17.788 12.859 0 23.321 10.462 23.321 23.321v21.357c0 12.859-10.462 23.321-23.321 23.321h-58.329zm-11.063 154.212h-68v-84h68zm-132.685-127.321v-21.358c0-12.859 10.462-23.321 23.321-23.321 12.565 0 24.176 6.816 30.3 17.788l28.029 50.212h-58.329c-12.859 0-23.321-10.462-23.321-23.321zm-111.315 51.14c0-4.312 3.508-7.819 7.819-7.819h148.181v84h-148.181c-4.312 0-7.819-3.508-7.819-7.819zm420 68.362c0 4.312-3.508 7.819-7.819 7.819h-29.181c-5.522 0-10 4.477-10 10s4.478 10 10 10h17v270c0 5.514-4.486 10-10 10h-360c-5.514 0-10-4.486-10-10v-270h273c5.522 0 10-4.477 10-10s-4.478-10-10-10h-29v-84h148.181c4.312 0 7.819 3.508 7.819 7.819z"/><path id="XMLID_2066_" d="m384 192c-2.63 0-5.21 1.07-7.07 2.93s-2.93 4.44-2.93 7.07 1.069 5.21 2.93 7.07 4.43 2.93 7.07 2.93c2.63 0 5.21-1.07 7.069-2.93 1.86-1.86 2.931-4.44 2.931-7.07s-1.07-5.21-2.931-7.07c-1.859-1.86-4.439-2.93-7.069-2.93z"/></g></g></svg>