<svg id="Group_1324" data-name="Group 1324" xmlns="http://www.w3.org/2000/svg" width="117.003" height="41.089" viewBox="0 0 117.003 41.089">
  <g id="images">
    <path id="Path_2" data-name="Path 2" d="M57.582-185.436a11.718,11.718,0,0,0-2.91,2c-1.129,1.433-.087,11.725,1.216,12.507.217.174.391-1.173.391-3.127,0-5.6,2.258-9.033,6.514-9.9,2.432-.521,4.56-1.477,4.082-1.911a11.576,11.576,0,0,0-3.648-.651C60.188-186.739,59.8-186.652,57.582-185.436Z" transform="translate(-44.597 186.615)" fill="#fff"/>
    <path id="Path_3" data-name="Path 3" d="M72.251-182.7a24.722,24.722,0,0,0-4.864,3.387c-2.215,2.693-3.083,8.555-1.216,8.555.608,0,1.086-.695,1.911-2.823,2.693-7.035,8.729-9.554,14.9-6.21,2.779,1.52,3.691,2.823,4.212,6.123a12.935,12.935,0,0,0,.869,3.431c.391.738.434.738.738,0,.434-1.216-.13-7.817-.825-9.467a8.476,8.476,0,0,0-1.52-2.3c-1.173-1.042-5.342-2.432-8.121-2.693C76.333-184.91,75.856-184.737,72.251-182.7Z" transform="translate(-50.797 185.568)" fill="#fff"/>
    <path id="Path_4" data-name="Path 4" d="M76.743-169.176c-2.389,2.215-4.69,6.471-4.3,8.034.3,1.216,3.127,2.693,5.168,2.736,2.171,0,7.209-5.776,7.209-8.295,0-1.563-.782-2.128-3.04-2.128-1.911,0-3.04.565-3.04,1.477,0,.217.347.087.782-.3a2.54,2.54,0,0,1,3.735.217c.955,1.346.869,1.781-.434,3.127a3.266,3.266,0,0,1-4.69.217c-1.52-1.173-1.477-2.736.13-4.343,1.129-1.086,1.607-1.259,3.735-1.259,3.6,0,4.994.869,4.994,3.17,0,1.65-.608,2.736-3.127,5.428-2.171,2.258-2.345,3.127-.695,3.127,2.519,0,5.993-4.169,5.993-7.252,0-3.518-3.214-5.776-8.208-5.776C78.914-171,78.523-170.826,76.743-169.176Z" transform="translate(-54.897 177.781)" fill="#fff"/>
    <path id="Path_5" data-name="Path 5" d="M94.711-166.96a13.335,13.335,0,0,1-.13,8.034,44.623,44.623,0,0,0-1.3,4.994c-1.173,6.34-7.73,11.291-15.895,12.116-2.171.174-4.169.391-4.473.391-.391,0-.391.347-.043,1.39,1.216,3.561,3.3,5.124,6.948,5.124,2.432,0,3.431-.478,5.776-2.649a24.854,24.854,0,0,1,5.342-2.953c5.168-2.215,6.9-3.3,7.687-4.864a1.967,1.967,0,0,0,0-2.519,4.672,4.672,0,0,0-1.086-1.563c-.217-.13.347-1,1.3-1.911l1.737-1.65.087-4.082c0-2.258,0-4.56-.043-5.168-.13-1.563-2-3.778-3.952-4.777C94.494-168.133,94.321-168.133,94.711-166.96Z" transform="translate(-55.018 175.999)" fill="#fff"/>
    <path id="Path_6" data-name="Path 6" d="M36.051-162.387a11.032,11.032,0,0,0-2.041,4.039c-.347,1.346-.955,3.344-1.3,4.43-.912,2.693-.825,3.648.434,5.124,1.563,1.867,7.47,5.819,9.988,6.688a14.53,14.53,0,0,0,4.126.738h1.954l-1.173-.651c-1.433-.738-7.73-9.033-7.73-10.075a5.822,5.822,0,0,1,.651-1.824c.825-1.433.782-3.083-.13-6.731-.738-2.866-.869-3.04-2.128-3.17C37.658-163.907,37.136-163.646,36.051-162.387Z" transform="translate(-32.098 173.728)" fill="#fff"/>
    <path id="Path_7" data-name="Path 7" d="M81.019-153.089a10.406,10.406,0,0,1-4.473,5.732c-1.954,1-4.951.738-9.988-.912-5.168-1.65-6.6-1.65-8.425.043-1.52,1.39-1.39,2.519.391,3.561a10.443,10.443,0,0,1,2.953,3.431c3.6,6.254,11.031,6.21,16.763-.043a14.264,14.264,0,0,0,4-10.466c0-1.781-.174-3.257-.347-3.257S81.323-154.131,81.019-153.089Z" transform="translate(-46.232 168.73)" fill="#fff"/>
  </g>
  <text id="GolPino" transform="translate(117.003 22.811)" fill="#fff" font-size="16" font-family="SegoeUI, Segoe UI"><tspan x="-55.492" y="0">GolPino</tspan></text>
</svg>
