<svg xmlns="http://www.w3.org/2000/svg" width="32.697" height="32.697" viewBox="0 0 32.697 32.697">
  <path id="phone" d="M2.113,24.981V29.6a3.084,3.084,0,0,0,3.364,3.081A30.581,30.581,0,0,0,18.8,27.953a30.065,30.065,0,0,0,9.26-9.241A30.443,30.443,0,0,0,32.794,5.358,3.083,3.083,0,0,0,29.723,2h-4.63a3.085,3.085,0,0,0-3.087,2.649,19.744,19.744,0,0,1-1.08,4.328,3.076,3.076,0,0,0,.694,3.25l1.96,1.956a24.669,24.669,0,0,1-9.26,9.242l-1.96-1.956A3.091,3.091,0,0,0,9.1,20.776a19.848,19.848,0,0,1-4.337,1.078,3.082,3.082,0,0,0-2.654,3.127Z" transform="translate(-1.111 -1)" fill="none" stroke="#0f0808" stroke-linecap="round" stroke-linejoin="round" stroke-width="2"/>
</svg>
